<?xml version="1.0" encoding="utf-8"?>
<svg xmlns="http://www.w3.org/2000/svg" viewBox="0 0 500 500">
  <defs>
    <ellipse id="SVGID_1_" transform="rotate(-37.001 420.46 67.88)" cx="420.5" cy="67.9" rx="63" ry="51.8"/>
  </defs>
  <path d="M 253.368 210.01 L 274.844 208.622 C 275.334 212.133 276.232 214.746 277.702 216.624 C 280.07 219.564 283.336 221.034 287.664 221.034 C 290.848 221.034 293.379 220.299 295.094 218.747 C 296.727 217.522 297.707 215.563 297.707 213.521 C 297.707 211.562 296.809 209.684 295.257 208.459 C 293.624 206.989 289.787 205.519 283.744 204.213 C 273.864 202.008 266.76 199.068 262.595 195.312 C 258.431 191.801 256.063 186.657 256.226 181.186 C 256.226 177.43 257.369 173.673 259.492 170.571 C 261.942 167.059 265.29 164.283 269.291 162.732 C 273.619 160.853 279.661 159.874 287.255 159.874 C 296.564 159.874 303.668 161.588 308.567 165.1 C 313.467 168.529 316.406 174.082 317.305 181.676 L 296.074 182.901 C 295.502 179.634 294.359 177.266 292.481 175.715 C 290.603 174.163 288.153 173.428 284.969 173.428 C 282.356 173.428 280.396 174 279.09 175.062 C 277.865 176.041 277.048 177.511 277.13 179.144 C 277.13 180.369 277.783 181.512 278.763 182.247 C 279.825 183.227 282.356 184.125 286.357 184.942 C 296.237 187.065 303.26 189.188 307.587 191.393 C 311.915 193.597 315.018 196.292 316.896 199.477 C 318.856 202.743 319.836 206.499 319.754 210.337 C 319.754 214.91 318.448 219.482 315.835 223.32 C 313.14 227.321 309.384 230.424 304.975 232.302 C 300.32 234.344 294.441 235.405 287.419 235.405 C 275.007 235.405 266.433 233.037 261.615 228.219 C 256.798 223.402 253.94 217.359 253.368 210.01 Z M 25.467 234.18 L 25.467 161.18 L 63.111 161.18 C 70.051 161.18 75.441 161.752 79.115 162.977 C 82.708 164.12 85.892 166.488 88.016 169.672 C 90.384 173.183 91.527 177.266 91.445 181.512 C 91.69 188.698 88.016 195.557 81.728 199.15 C 79.278 200.538 76.584 201.518 73.807 202.008 C 75.849 202.58 77.89 203.559 79.687 204.703 C 81.075 205.846 82.218 207.152 83.279 208.54 C 84.504 209.929 85.566 211.48 86.464 213.113 L 97.406 234.262 L 71.766 234.262 L 59.681 211.807 C 58.13 208.949 56.823 207.071 55.598 206.172 C 53.965 205.029 52.005 204.458 50.046 204.458 L 48.086 204.458 L 48.086 234.099 L 25.467 234.099 L 25.467 234.18 Z M 48.086 190.739 L 57.64 190.739 C 59.681 190.576 61.641 190.25 63.6 189.76 C 65.07 189.515 66.377 188.698 67.275 187.473 C 69.48 184.534 69.153 180.369 66.458 177.838 C 64.989 176.613 62.131 175.96 58.048 175.96 L 48.086 175.96 L 48.086 190.739 Z M 20.323 296.728 L 41.798 295.34 C 42.288 298.852 43.187 301.464 44.656 303.343 C 46.943 306.282 50.291 307.834 54.618 307.834 C 57.803 307.834 60.334 307.099 62.049 305.547 C 63.682 304.241 64.662 302.363 64.662 300.321 C 64.662 298.362 63.764 296.483 62.212 295.259 C 60.579 293.789 56.741 292.319 50.617 291.013 C 40.737 288.808 33.633 285.868 29.468 282.112 C 25.304 278.601 22.936 273.457 23.099 267.986 C 23.099 264.23 24.242 260.473 26.366 257.37 C 28.815 253.859 32.163 251.083 36.164 249.532 C 40.492 247.653 46.534 246.674 54.128 246.674 C 63.437 246.674 70.541 248.388 75.441 251.9 C 80.34 255.411 83.198 260.882 84.096 268.476 L 62.866 269.7 C 62.294 266.434 61.151 264.066 59.273 262.515 C 57.476 260.963 54.945 260.228 51.76 260.31 C 49.147 260.31 47.188 260.882 45.881 262.025 C 44.575 263.005 43.84 264.474 43.921 266.108 C 43.921 267.332 44.575 268.476 45.555 269.211 C 46.616 270.19 49.147 271.089 53.149 271.905 C 63.029 274.028 70.051 276.151 74.379 278.356 C 78.707 280.561 81.81 283.255 83.688 286.44 C 85.648 289.706 86.627 293.462 86.627 297.218 C 86.627 301.791 85.239 306.282 82.708 310.12 C 80.013 314.121 76.257 317.224 71.848 319.102 C 67.193 321.143 61.314 322.205 54.292 322.205 C 41.88 322.205 33.306 319.837 28.489 315.019 C 23.671 310.12 20.976 304.077 20.323 296.728 Z" style="fill: rgb(255, 255, 255);"/>
  <path d="M 128.925 291.013 L 148.686 296.973 C 147.624 301.954 145.419 306.69 142.398 310.855 C 139.622 314.529 135.947 317.387 131.783 319.265 C 127.537 321.143 122.148 322.123 115.615 322.123 C 107.695 322.123 101.162 320.98 96.181 318.694 C 91.118 316.407 86.791 312.325 83.116 306.527 C 79.442 300.73 77.645 293.299 77.645 284.235 C 77.645 272.15 80.83 262.841 87.281 256.391 C 93.731 249.94 102.795 246.674 114.554 246.674 C 123.781 246.674 130.966 248.552 136.274 252.226 C 141.5 255.982 145.419 261.698 148.032 269.374 L 128.108 273.783 C 127.618 272.068 126.884 270.354 125.904 268.884 C 124.679 267.169 123.127 265.863 121.249 264.883 C 119.371 263.903 117.248 263.495 115.125 263.495 C 109.981 263.495 106.061 265.536 103.367 269.7 C 101.325 272.722 100.264 277.539 100.264 284.072 C 100.264 292.156 101.489 297.708 103.938 300.73 C 106.388 303.751 109.818 305.221 114.309 305.221 C 118.636 305.221 121.903 303.996 124.107 301.628 C 126.312 299.096 127.945 295.585 128.925 291.013 Z M 175.06 247.898 L 197.597 247.898 L 197.597 273.457 L 222.257 273.457 L 222.257 247.898 L 244.958 247.898 L 244.958 320.899 L 222.257 320.899 L 222.257 291.339 L 197.597 291.339 L 197.597 320.899 L 175.06 320.899 L 175.06 247.898 Z" style="fill: rgb(255, 255, 255);"/>
  <path d="M 241.855 284.398 C 241.855 272.477 245.203 263.168 251.817 256.554 C 258.431 249.94 267.74 246.592 279.58 246.592 C 291.746 246.592 301.055 249.858 307.669 256.391 C 314.283 262.923 317.549 272.068 317.549 283.827 C 317.549 292.401 316.08 299.341 313.222 304.812 C 310.445 310.202 306.118 314.611 300.81 317.551 C 295.339 320.572 288.562 322.123 280.478 322.123 C 272.231 322.123 265.453 320.817 260.064 318.204 C 254.511 315.428 249.939 311.1 246.917 305.792 C 243.569 300.076 241.855 292.972 241.855 284.398 Z M 264.392 284.48 C 264.392 291.829 265.78 297.137 268.474 300.403 C 271.169 303.588 274.925 305.221 279.661 305.221 C 284.479 305.221 288.235 303.669 290.93 300.485 C 293.624 297.3 294.931 291.666 294.931 283.5 C 294.931 276.641 293.543 271.579 290.766 268.476 C 287.99 265.291 284.234 263.74 279.498 263.74 C 275.334 263.576 271.332 265.373 268.556 268.557 C 265.78 271.742 264.392 277.049 264.392 284.48 Z M 340.658 284.398 C 340.658 272.477 344.006 263.168 350.62 256.554 C 357.234 249.94 366.543 246.592 378.383 246.592 C 390.55 246.592 399.94 249.858 406.472 256.391 C 413.005 262.923 416.353 272.068 416.353 283.827 C 416.353 292.401 414.883 299.341 412.025 304.812 C 409.249 310.202 404.921 314.611 399.613 317.551 C 394.142 320.572 387.365 322.123 379.281 322.123 C 371.034 322.123 364.257 320.817 358.867 318.204 C 353.315 315.428 348.742 311.1 345.721 305.792 C 342.373 300.076 340.658 292.972 340.658 284.398 Z M 363.195 284.48 C 363.195 291.829 364.583 297.137 367.278 300.403 C 369.972 303.588 373.729 305.221 378.465 305.221 C 383.282 305.221 387.038 303.669 389.733 300.485 C 392.428 297.3 393.734 291.666 393.734 283.5 C 393.734 276.641 392.346 271.579 389.57 268.476 C 386.793 265.291 383.037 263.74 378.301 263.74 C 374.137 263.576 370.054 265.373 367.359 268.557 C 364.583 271.742 363.195 277.049 363.195 284.48 Z" style="fill: rgb(255, 255, 255);"/>
  <path d="M 413.985 247.898 L 436.522 247.898 L 436.522 302.934 L 471.715 302.934 L 471.715 320.899 L 413.903 320.899 L 413.903 247.898 L 413.985 247.898 Z" style="fill: rgb(255, 255, 255);"/>
  <ellipse transform="matrix(0.798625, -0.601829, 0.601829, 0.798625, -12.998179, 408.747482)" class="st0" cx="420.5" cy="67.9" rx="51.443" ry="42.298" style="fill: rgb(255, 255, 255);"/>
  <clipPath id="SVGID_2_">
    <ellipse transform="matrix(0.7986250120419751, -0.6018289542228382, 0.6018289542228382, 0.7986250120419751, 43.81797795642399, 266.714330579451)" cx="420.5" cy="67.9" rx="63" ry="51.8" overflow="visible"/>
  </clipPath>
  <g style="clip-path: url(&quot;#SVGID_2_&quot;);" transform="matrix(0.816556, 0, 0, 0.816556, 20.322556, 154.483887)">
    <path transform="rotate(-37.001 420.82 68.353)" class="st0" d="M330.9-14.2h179.8v165.1H330.9z" style="fill: rgb(255, 255, 255);"/>
    <g id="Layer_2_1_">
      <defs>
        <path id="SVGID_3_" transform="rotate(-37.001 420.82 68.353)" d="M330.9-14.2h179.8v165.1H330.9z"/>
      </defs>
      <clipPath id="SVGID_4_">
        <path transform="matrix(0.7986250120419751, -0.6018289542228382, 0.6018289542228382, 0.7986250120419751, 43.605811309518515, 267.02624883674696)" d="M330.9-14.2h179.8v165.1H330.9z" overflow="visible"/>
      </clipPath>
      <g id="Layer_1-2" style="clip-path:url(#SVGID_4_)">
        <ellipse transform="rotate(-37.001 420.46 67.88)" class="st0" cx="420.5" cy="67.9" rx="63" ry="51.8" style="fill: rgb(255, 255, 255);"/>
        <defs>
          <ellipse id="SVGID_5_" transform="rotate(-37.001 420.46 67.88)" cx="420.5" cy="67.9" rx="63" ry="51.8"/>
        </defs>
        <clipPath id="SVGID_6_">
          <ellipse transform="matrix(0.7986250120419751, -0.6018289542228382, 0.6018289542228382, 0.7986250120419751, 43.81797795642399, 266.714330579451)" cx="420.5" cy="67.9" rx="63" ry="51.8" overflow="visible"/>
        </clipPath>
        <g style="clip-path:url(#SVGID_6_)">
          <path transform="rotate(-37 420.799 68.802)" class="st0" d="M357.8 17h125.9v103.7H357.8z" style="fill: rgb(255, 255, 255);"/>
          <defs>
            <path id="SVGID_7_" transform="rotate(-37 420.799 68.802)" d="M357.8 17h125.9v103.7H357.8z"/>
          </defs>
          <clipPath id="SVGID_8_">
            <path transform="matrix(0.7986355100472928, -0.6018150231520483, 0.6018150231520483, 0.7986355100472928, 43.327899870699696, 267.0974467170397)" d="M357.8 17h125.9v103.7H357.8z" overflow="visible"/>
          </clipPath>
          <ellipse transform="rotate(-37.001 420.46 67.88)" class="st5" cx="420.5" cy="67.9" rx="63" ry="51.8" style="clip-path: url(&quot;#SVGID_8_&quot;); fill: rgb(255, 255, 255); stroke: rgb(0, 0, 0); stroke-miterlimit: 10; stroke-width: 4px;"/>
          <path transform="rotate(-37 420.799 68.802)" d="M357.8 17h125.9v103.7H357.8z" style="fill:none;stroke:#000;stroke-width:4;stroke-miterlimit:10;clip-path:url(#SVGID_8_)"/>
          <ellipse transform="rotate(-37.001 420.46 67.88)" class="st7" cx="420.5" cy="67.9" rx="63" ry="51.8" style="fill: none; stroke: rgb(0, 0, 0); stroke-miterlimit: 10; stroke-width: 4px;"/>
          <path transform="rotate(-37 420.799 68.802)" class="st0" d="M357.8 17h125.9v103.7H357.8z" style="fill: rgb(255, 255, 255);"/>
          <defs>
            <path id="SVGID_9_" transform="rotate(-37 420.799 68.802)" d="M357.8 17h125.9v103.7H357.8z"/>
          </defs>
          <clipPath id="SVGID_10_">
            <path transform="matrix(0.7986355100472928, -0.6018150231520483, 0.6018150231520483, 0.7986355100472928, 43.327899870699696, 267.0974467170397)" d="M357.8 17h125.9v103.7H357.8z" overflow="visible"/>
          </clipPath>
          <ellipse transform="rotate(-37.001 420.46 67.88)" class="st5" cx="420.5" cy="67.9" rx="63" ry="51.8" style="clip-path: url(&quot;#SVGID_10_&quot;); stroke: rgb(0, 0, 0); stroke-miterlimit: 10; stroke-width: 4px;"/>
          <path transform="rotate(-37 420.799 68.802)" d="M357.8 17h125.9v103.7H357.8z" style="fill:none;stroke:#000;stroke-width:4;stroke-miterlimit:10;clip-path:url(#SVGID_10_)"/>
          <path transform="rotate(-37.001 420.82 68.353)" class="st7" d="M330.9-14.2h179.8v165.1H330.9z" style="fill: none; stroke: rgb(0, 0, 0); stroke-miterlimit: 10; stroke-width: 4px;"/>
        </g>
        <ellipse transform="rotate(-37.001 420.46 67.88)" class="st7" cx="420.5" cy="67.9" rx="63" ry="51.8" style="stroke: rgb(0, 0, 0); stroke-miterlimit: 10; stroke-width: 4px;"/>
        <path d="m392.4 61.3 10-7 12.3 17.5c2.1 2.8 3.7 5.8 4.9 9.1.7 2.5.5 5.2-.5 7.6-1.3 3-3.4 5.5-6.2 7.3-3.3 2.3-6.1 3.6-8.5 4-2.3.4-4.7 0-6.9-1-2.4-1.2-4.5-2.9-6.1-5.1l8.6-8c.7 1.1 1.6 2.1 2.6 2.9.7.5 1.5.8 2.4.8.7 0 1.4-.3 1.9-.7 1-.6 1.7-1.8 1.6-3-.3-1.7-1-3.4-2.1-4.7l-14-19.7zm30 11.1 9.1-7.2c1 1.2 2.3 2.1 3.7 2.6 2 .6 4.1.2 5.8-1.1 1.2-.8 2.2-1.9 2.6-3.3.6-1.8-.4-3.8-2.2-4.4-.3-.1-.6-.2-.9-.2-1.2-.1-3.3.4-6.4 1.7-5.1 2.1-9.1 2.9-12.1 2.6-2.9-.3-5.6-1.8-7.2-4.3-1.2-1.7-1.8-3.7-1.9-5.7 0-2.3.6-4.6 1.9-6.5 1.9-2.7 4.2-5 7-6.8 4.2-2.9 7.9-4.3 11.1-4.3 3.2 0 6.2 1.5 9 4.6l-9 7.1c-1.8-2.3-5.2-2.8-7.5-1l-.3.3c-1 .6-1.7 1.5-2.1 2.6-.3.8-.1 1.7.4 2.4.4.5 1 .9 1.7.9.8.1 2.2-.3 4.2-1.2 5-2.1 8.8-3.3 11.4-3.7 2.2-.4 4.5-.2 6.6.7 1.9.8 3.5 2.2 4.6 3.9 1.4 2 2.2 4.4 2.3 6.9.1 2.6-.6 5.1-2 7.3-1.8 2.7-4.1 5-6.8 6.8-5.5 3.8-10 5.4-13.6 4.8-3.9-.6-7.1-2.6-9.4-5.5z" style="fill: rgb(255, 255, 255);"/>
      </g>
    </g>
  </g>
</svg>